# xmcd CD database file
#
# Track frame offsets:
#	150
#	14992
#	30020
#	44060
#	59027
#	72705
#	86432
#	100010
#	113990
#	128875
#	153065
#	168192
#	182015
#	197287
#	211645
#	226300
#	241225
#	255365
#	268810
#	284127
#	298460
#	312965
#	328205
#
# Disc length: 4649 seconds
#
# Revision: 0
# Processed by: cddbd v1.4PL0 Copyright (c) Steve Scherf et al.
# Submitted via: CDex 1.40Release
#
DISCID=54122717
DTITLE=Various Artist - Perfect Blues
DYEAR=2000
DGENRE=Blues
TTITLE0=Count Basie - Jimmy Rushing: Good Morning Blues 
TTITLE1=Billie Holiday: Fine And Mellow 
TTITLE2=Jelly Roll Morton: Original Jelly Roll Blues 
TTITLE3=Joe Venuti - Eddie Lang: Beale Street Blues 
TTITLE4=Bessie Smith: Nobody Knows You When You're Down And Out 
TTITLE5=Louis Armstrong and His Hot Seven: Potato Head Blues
TTITLE6=Leadbelly: Backwater Blues
TTITLE7=Kay Starr: Stormy Weather 
TTITLE8=Fats Waller: Fats Waller's Original E-Flat Blues 
TTITLE9=Jimmie Lunceford and His Orchestra: Blues In The Night
TTITLE10=Maxine Sullivan: St. Louis Blues 
TTITLE11=Benny Carter and His Orchestra: Swingin' The Blues 
TTITLE12=Trixie Smith: Freight Train Blues
TTITLE13=Louis Armstrong and His Orchestra: (What Did I Do To Be So) Black And Blue? 
TTITLE14=Bessie Smith: I'm Down In The Dumps 
TTITLE15=Joe Venuti's Blue Four: To To Blues 
TTITLE16=Nat Gonella and His Georgians: Hesitation Blues
TTITLE17=Johnny Dodds and His Orchestra: Red Onion Blues 
TTITLE18=Louis Jordan and His Tympany Five: Early In The Morning 
TTITLE19=Billie Holiday: I Love My Man (Billie's Blues)
TTITLE20=Woody Herman and His Orchestra: Blues On Parade 
TTITLE21=Sarah Vaughan: Lover Man
TTITLE22=Count Basie - Jimmy Rushing: Harvard Blues
EXTD=YEAR: 2000 ID3G: 0
EXTT0=
EXTT1=
EXTT2=
EXTT3=
EXTT4=
EXTT5=
EXTT6=
EXTT7=
EXTT8=
EXTT9=
EXTT10=
EXTT11=
EXTT12=
EXTT13=
EXTT14=
EXTT15=
EXTT16=
EXTT17=
EXTT18=
EXTT19=
EXTT20=
EXTT21=
EXTT22=
PLAYORDER=
